<svg width="15" height="13" viewBox="0 0 15 13" fill="none" xmlns="http://www.w3.org/2000/svg">
<g clip-path="url(#clip0_207_3508)">
<path d="M12.653 8.2619C13.5607 8.3283 13.8533 8.24708 13.8345 7.20722C13.8028 5.44587 13.8263 3.68273 13.8257 1.92079C13.8257 1.39374 13.6207 1.18447 13.1042 1.18447C10.1562 1.18447 7.20811 1.18447 4.26005 1.18447C3.74833 1.18447 3.58912 1.32379 3.51216 1.83719C3.46457 2.15081 3.20549 2.37728 2.90704 2.36542C2.59566 2.35297 2.35655 2.09686 2.34421 1.76309C2.31249 0.875592 3.10679 0.012996 4.01565 0.00943892C7.11999 -0.00301092 10.2243 -0.00360377 13.3287 0.00943892C14.2299 0.0135889 14.9901 0.819271 14.9936 1.73759C15.0019 3.73609 15.003 5.73458 14.993 7.73308C14.9883 8.66089 14.207 9.43396 13.287 9.45412C13.0849 9.45886 12.8822 9.45471 12.653 9.45471C12.653 10.0333 12.653 10.5817 12.653 11.1301C12.6519 12.2411 11.9005 12.9988 10.7971 12.9994C7.80971 12.9994 4.82287 13 1.83544 12.9994C0.75562 12.9994 0.00127226 12.2334 0.000684764 11.139C9.72661e-05 9.22943 9.72661e-05 7.31927 0.000684764 5.4097C0.000684764 4.31471 0.755032 3.54934 1.83485 3.54934C4.83168 3.54875 7.82851 3.54816 10.8253 3.54934C11.8899 3.54934 12.6501 4.31649 12.6519 5.38777C12.653 6.24444 12.6519 7.10051 12.6519 7.95718C12.6519 8.05322 12.6519 8.14985 12.6519 8.2619H12.653ZM11.4827 5.91185C11.4827 5.77786 11.4827 5.68953 11.4827 5.60179C11.4845 4.88859 11.3294 4.72911 10.632 4.72911C7.73275 4.72911 4.83286 4.72911 1.93355 4.72911C1.36956 4.72911 1.17098 4.92535 1.17098 5.48322C1.17098 7.34417 1.17098 9.20453 1.17098 11.0655C1.17098 11.6156 1.36897 11.8196 1.90477 11.8196C4.85283 11.8196 7.80148 11.8196 10.7495 11.8196C11.2842 11.8196 11.4822 11.6151 11.4822 11.0643C11.4822 9.88275 11.4822 8.7012 11.4822 7.51965V7.09162H11.1044C8.44891 7.09162 5.79342 7.09162 3.13792 7.09162C3.0498 7.09162 2.96109 7.09814 2.87473 7.08806C2.56746 7.05367 2.33599 6.78808 2.34421 6.48573C2.35185 6.19404 2.5798 5.94623 2.87531 5.91422C2.96226 5.90473 3.05097 5.91125 3.13851 5.91125C5.794 5.91125 8.44949 5.91125 11.105 5.91125H11.4822L11.4827 5.91185Z" fill="#B66B25"/>
<path d="M8.5434 10.6369C8.17327 10.6369 7.80315 10.6404 7.43303 10.6357C7.05996 10.631 6.7997 10.3885 6.79618 10.0523C6.79265 9.71441 7.05174 9.46067 7.42128 9.45829C8.17151 9.45355 8.92116 9.45414 9.67139 9.45829C10.045 9.46007 10.3053 9.70433 10.3088 10.0411C10.3124 10.3778 10.0521 10.6304 9.68314 10.6357C9.30362 10.6416 8.92351 10.6369 8.5434 10.6369Z" fill="#B66B25"/>
</g>
<defs>
<clipPath id="clip0_207_3508">
<rect width="15" height="13" fill="white"/>
</clipPath>
</defs>
</svg>
