<svg width="22" height="21" viewBox="0 0 22 21" fill="none" xmlns="http://www.w3.org/2000/svg">
<g clip-path="url(#clip0_959_222)">
<path d="M13.6786 2.84431C15.6243 2.84431 17.5716 2.89649 19.5139 2.82663C20.92 2.77613 22.1564 4.06058 21.7542 5.6952C21.1765 8.04274 20.6626 10.4063 20.118 12.7622C19.8499 13.9204 19.0571 14.5669 17.9026 14.5677C14.4946 14.5702 11.0866 14.5702 7.6786 14.5677C6.56053 14.5669 5.72715 13.9028 5.47474 12.79C4.8557 10.0637 4.24825 7.33486 3.63584 4.6077C3.62094 4.53952 3.59198 4.47134 3.59115 4.40316C3.58205 3.31903 2.96632 2.75172 2.01294 2.45291C1.76549 2.37547 1.53129 2.245 1.30122 2.11959C0.872529 1.88391 0.721908 1.43948 0.914736 1.01778C1.09763 0.61881 1.53956 0.415114 1.95584 0.597767C2.65018 0.901626 3.34039 1.22148 4.00743 1.58173C4.53211 1.86539 4.82756 2.35779 4.95915 2.94531C5.65184 6.02767 6.34453 9.10919 7.03474 12.1916C7.16963 12.7934 7.27225 12.8843 7.86646 12.8843C11.1636 12.8843 14.4615 12.8843 17.7586 12.8843C18.3156 12.8843 18.4149 12.7993 18.5423 12.2437C19.0612 9.98205 19.5834 7.72205 20.1015 5.46036C20.2736 4.7087 20.1247 4.52184 19.3699 4.52184C15.5208 4.52184 11.6709 4.52184 7.82177 4.521C7.65708 4.521 7.48908 4.52353 7.32687 4.49743C6.86674 4.42252 6.59115 4.07489 6.61267 3.62037C6.63418 3.1751 6.95446 2.85356 7.42784 2.8502C8.76605 2.8401 10.1043 2.84599 11.4425 2.84515C12.1873 2.84515 12.9329 2.84515 13.6778 2.84515L13.6786 2.84431ZM6.24025 18.3571C6.23529 19.5566 7.18784 20.5397 8.34646 20.5304C9.48936 20.5212 10.451 19.5397 10.4518 18.3807C10.4518 17.2124 9.50425 16.2503 8.34811 16.2469C7.17046 16.2436 6.24522 17.1695 6.24025 18.3571ZM9.13101 18.3942C9.12025 18.8125 8.73129 19.1946 8.32246 19.1862C7.8946 19.1778 7.55694 18.8133 7.56191 18.3655C7.56687 17.9127 7.90287 17.5836 8.35225 17.5903C8.78756 17.597 9.14177 17.9624 9.13101 18.3933V18.3942ZM17.7735 16.2461C16.6099 16.2469 15.6714 17.1913 15.6623 18.3689C15.654 19.5448 16.6422 20.5473 17.7925 20.5296C18.9511 20.5119 19.8706 19.554 19.8673 18.3681C19.864 17.1737 18.9478 16.2453 17.7735 16.2461ZM17.7834 19.1862C17.3738 19.1929 16.9881 18.8108 16.9798 18.3899C16.9716 17.9565 17.3233 17.5962 17.7603 17.5912C18.2113 17.5861 18.5431 17.9135 18.5465 18.3689C18.5506 18.815 18.2096 19.1795 17.7826 19.1862H17.7834Z" fill="#333333"/>
</g>
<defs>
<clipPath id="clip0_959_222">
<rect width="21" height="20" fill="white" transform="translate(0.832031 0.530563)"/>
</clipPath>
</defs>
</svg>
