<svg width="16" height="12" viewBox="0 0 16 12" fill="none" xmlns="http://www.w3.org/2000/svg">
<g clip-path="url(#clip0_28_501)">
<path d="M14.9941 9.02752C14.9941 8.17041 15.0104 7.36552 14.9809 6.56187C14.9747 6.39406 14.7948 6.2337 14.7008 6.0665C14.4495 5.61962 14.096 5.46175 13.5589 5.49034C12.5411 5.54379 11.5183 5.50712 10.498 5.50525C10.0011 5.50463 9.82621 5.3306 9.82495 4.82902C9.82245 3.84823 9.82433 2.86744 9.82433 1.88728C9.82433 1.77478 9.82433 1.66228 9.82433 1.49508H9.44579C7.03984 1.49508 4.63451 1.49508 2.22856 1.49508C2.11387 1.49508 1.99918 1.49819 1.88512 1.48825C1.61939 1.46463 1.4671 1.30924 1.43953 1.05379C1.41195 0.795231 1.53792 0.611877 1.78986 0.5404C1.91708 0.504972 2.05621 0.501865 2.1897 0.501865C4.80372 0.5 7.41775 0.5 10.0318 0.5C10.7005 0.5 10.8101 0.605662 10.8315 1.26076C10.834 1.33038 10.8478 1.39999 10.8603 1.50192C11.4726 1.50192 12.0755 1.52057 12.6765 1.49571C13.1171 1.47706 13.3966 1.62188 13.5765 2.03831C13.8008 2.55792 14.0985 3.04582 14.3367 3.56046C14.7165 4.38089 15.1959 5.13295 15.7737 5.83032C15.9053 5.98943 15.9818 6.23805 15.9868 6.44751C16.0087 7.41711 15.9975 8.38795 15.9962 9.35818C15.9962 9.84981 15.8201 10.0207 15.3143 10.0232C14.8888 10.0251 14.4626 10.0232 14.0377 10.0232C13.7551 10.8101 13.2462 11.3216 12.4158 11.4596C11.4669 11.6175 10.5964 11.1439 10.2267 10.2563C10.1477 10.0674 10.0543 10.017 9.86193 10.0189C8.96698 10.0282 8.07141 10.0232 7.15327 10.0232C7.12131 10.0972 7.08998 10.1693 7.05927 10.242C6.73463 11.009 5.99385 11.5242 5.18414 11.4981C4.31489 11.4702 3.68003 11.0506 3.33471 10.2563C3.25135 10.0649 3.15985 10.0139 2.97121 10.0201C2.64908 10.0313 2.3257 10.0294 2.00294 10.0214C1.64321 10.0114 1.42448 9.80506 1.43389 9.50113C1.44329 9.20528 1.64697 9.03373 2.00607 9.02876C2.33949 9.02441 2.6729 9.01819 3.00568 9.03125C3.16738 9.03746 3.24133 8.97904 3.30024 8.8336C3.64054 7.99763 4.34309 7.50412 5.18038 7.49791C6.01454 7.49232 6.74152 7.99265 7.0718 8.81619C7.1351 8.97344 7.21156 9.03311 7.38767 9.03125C8.22057 9.0213 9.0541 9.0213 9.887 9.03125C10.065 9.03311 10.1333 8.96847 10.1953 8.80936C10.5087 8.01006 11.2376 7.50723 12.0648 7.49791C12.8933 7.48859 13.6404 7.99638 13.9631 8.80873C14.0258 8.96598 14.0929 9.04368 14.2734 9.03125C14.499 9.01509 14.7265 9.02752 14.9928 9.02752H14.9941ZM13.688 4.49774C13.359 3.84699 13.0456 3.22421 12.726 2.60515C12.7022 2.55978 12.6326 2.50944 12.5837 2.50881C12.0065 2.50198 11.4287 2.50446 10.8546 2.50446V4.49774H13.688ZM6.19064 9.50424C6.1919 8.9461 5.74066 8.49424 5.18602 8.49797C4.63577 8.50169 4.17952 8.96412 4.18516 9.51232C4.1908 10.0468 4.6389 10.4931 5.17913 10.5024C5.73314 10.5124 6.18939 10.0618 6.19064 9.50362V9.50424ZM13.0814 9.5465C13.1071 8.99458 12.6809 8.53091 12.1194 8.49983C11.5866 8.47062 11.0915 8.92807 11.069 9.47067C11.047 10.0027 11.5077 10.4832 12.0586 10.5024C12.5919 10.5211 13.0563 10.0872 13.082 9.5465H13.0814Z" fill="white"/>
<path d="M2.64286 5.51209C1.95724 5.51209 1.27161 5.51458 0.585989 5.51085C0.217482 5.5096 -0.00186815 5.31941 1.19894e-05 5.01735C0.00189213 4.72149 0.231896 4.51949 0.59163 4.51887C1.96288 4.51576 3.33413 4.51576 4.70538 4.51887C5.06637 4.51949 5.29888 4.71528 5.30765 5.00802C5.31642 5.31817 5.08955 5.51023 4.69974 5.51209C4.01411 5.51458 3.32849 5.51271 2.64286 5.51271V5.51209Z" fill="white"/>
<path d="M3.45451 3.54678C2.78831 3.54678 2.12212 3.54926 1.45655 3.54553C1.05482 3.54367 0.827325 3.36591 0.820431 3.06322C0.814164 2.7655 1.05733 2.55356 1.43774 2.55231C2.80085 2.54734 4.16458 2.54734 5.52768 2.55231C5.90057 2.55356 6.1193 2.74623 6.12431 3.04457C6.12995 3.35845 5.91248 3.54243 5.51514 3.54553C4.82827 3.54988 4.14139 3.54678 3.45451 3.54678Z" fill="white"/>
<path d="M2.50298 6.49414C2.8671 6.49414 3.23185 6.48978 3.59597 6.49538C3.93001 6.50035 4.12679 6.67811 4.13494 6.96713C4.14372 7.27168 3.94254 7.48176 3.60474 7.48549C2.85519 7.49357 2.10564 7.49357 1.35609 7.48549C1.05088 7.48176 0.823387 7.25676 0.819627 6.99075C0.815866 6.70422 1.04023 6.50035 1.37803 6.496C1.7528 6.49103 2.12758 6.49476 2.50235 6.49476L2.50298 6.49414Z" fill="white"/>
</g>
<defs>
<clipPath id="clip0_28_501">
<rect width="16" height="11" fill="white" transform="translate(0 0.5)"/>
</clipPath>
</defs>
</svg>
