<svg width="40" height="41" viewBox="0 0 40 41" fill="none" xmlns="http://www.w3.org/2000/svg">
<g clip-path="url(#clip0_101_1033)">
<path d="M12.5821 0.10498H27.3451C27.991 0.395085 28.2363 0.886593 28.2133 1.59516C28.1747 2.80254 28.2029 4.012 28.2029 5.22668C28.325 5.27782 28.4304 5.32478 28.5368 5.36756C30.6542 6.21805 32.7809 7.04662 34.8868 7.92424C37.1836 8.88117 38.7374 10.5686 39.5577 12.9145C39.7518 13.4707 39.8551 14.0603 40.0001 14.6342V39.2399C39.7309 39.8003 39.3302 40.106 38.6644 40.105C26.2191 40.0945 13.7738 40.0977 1.32855 40.0977C0.462414 40.0977 0.00847303 39.6437 0.00847303 38.7766C0.00847303 30.9792 -0.0144849 23.1808 0.019952 15.3835C0.033518 12.4991 1.31916 10.2086 3.73392 8.64533C4.66997 8.03903 5.75839 7.65605 6.79776 7.22089C8.42568 6.5405 10.0724 5.9029 11.7243 5.24129C11.7243 4.01722 11.7525 2.80671 11.7139 1.59829C11.6909 0.887637 11.9351 0.395085 12.5821 0.106024V0.10498ZM18.8079 33.0527V2.47591H14.065C14.065 3.60919 14.065 4.7143 14.065 5.81942C14.065 6.62816 13.8657 6.9214 13.0987 7.2282C10.7622 8.16425 8.42255 9.09509 6.08815 10.0364C5.73543 10.1793 5.4015 10.3703 5.0133 10.5613C6.25094 11.7958 7.41032 12.9917 8.61665 14.1385C9.1666 14.6613 9.39826 15.2155 9.39409 15.9877C9.36382 21.5185 9.37844 27.0503 9.37844 32.581C9.37844 32.7334 9.37844 32.8847 9.37844 33.0538H18.8079V33.0527ZM30.5498 33.0527C30.5498 32.868 30.5498 32.7136 30.5498 32.5602C30.5498 26.8979 30.5529 21.2357 30.5446 15.5734C30.5446 15.0568 30.7303 14.6853 31.1342 14.3733C32.2664 13.4988 33.3851 12.6056 34.509 11.7186C34.8116 11.4796 35.1101 11.2375 35.5192 10.9098C34.8304 10.5602 34.2419 10.2086 33.6147 9.95184C31.3325 9.01683 29.0367 8.11416 26.7461 7.19689C26.0866 6.93287 25.8643 6.59685 25.8633 5.8862C25.8633 4.98771 25.8633 4.09027 25.8633 3.19178C25.8633 2.94968 25.8633 2.70862 25.8633 2.47904H21.1945V33.0527H30.5498ZM3.41877 12.1297C3.30502 12.2967 3.28311 12.3269 3.26328 12.3582C3.20171 12.4574 3.13805 12.5555 3.0817 12.6577C2.56202 13.6021 2.34705 14.6186 2.34705 15.6903C2.34809 21.3369 2.34705 26.9824 2.34705 32.629C2.34705 32.7668 2.34705 32.9056 2.34705 33.0423H7.02107C7.02734 32.964 7.03568 32.9139 7.03568 32.8628C7.03568 27.2945 7.03881 21.7272 7.02733 16.1588C7.02733 16.0044 6.92507 15.8155 6.81132 15.7007C5.80952 14.6791 4.79103 13.6742 3.78505 12.6557C3.65043 12.52 3.56069 12.3384 3.41772 12.1308L3.41877 12.1297ZM37.6584 33.0611V32.6124C37.6584 29.3075 37.6584 26.0015 37.6584 22.6966C37.6584 20.3278 37.6626 17.96 37.6563 15.5911C37.6542 14.6186 37.4487 13.6929 36.9572 12.8101C36.8372 12.8946 36.7401 12.9552 36.6514 13.0251C35.4972 13.935 34.3493 14.8523 33.1868 15.7518C32.9698 15.9199 32.8832 16.0858 32.8832 16.3634C32.8926 21.7898 32.8894 27.2162 32.8894 32.6426V33.06H37.6574L37.6584 33.0611ZM9.39618 37.7299H30.5185V35.431H9.39618V37.7299ZM37.6292 37.7403V35.4424H32.9124V37.7403H37.6292ZM7.01794 37.7403V35.4341H2.37523V37.7403H7.0169H7.01794Z" fill="black"/>
<path d="M25.8571 14.2449C26.2599 14.2449 26.6627 14.2365 27.0645 14.2469C27.7188 14.2636 28.2103 14.7792 28.203 15.4293C28.1967 16.0596 27.7094 16.5709 27.0728 16.5814C26.2683 16.5939 25.4627 16.5939 24.6581 16.5814C24.0048 16.572 23.5133 16.0491 23.5196 15.399C23.5248 14.7687 24.0142 14.2636 24.6487 14.2469C25.0505 14.2365 25.4533 14.2449 25.8561 14.2449H25.8571Z" fill="black"/>
</g>
<defs>
<clipPath id="clip0_101_1033">
<rect width="40" height="40" fill="white" transform="translate(0 0.10498)"/>
</clipPath>
</defs>
</svg>
