<svg width="44" height="44" viewBox="0 0 44 44" fill="none" xmlns="http://www.w3.org/2000/svg">
<g clip-path="url(#clip0_101_1005)">
<path d="M0.944824 31.5117C1.06038 31.4152 1.1849 31.3266 1.29036 31.2211C3.45893 29.0548 5.63086 26.893 7.78933 24.7166C9.65836 22.8329 11.8998 21.8939 14.562 21.9164C17.5428 21.9411 20.5236 21.9141 23.5044 21.9254C25.5776 21.9332 27.1774 23.2166 27.5959 25.2034C27.7597 25.9831 27.6811 26.7584 27.3782 27.5639C28.2667 27.5639 29.1126 27.5751 29.9585 27.5515C30.0808 27.5481 30.2109 27.3978 30.3153 27.2935C32.4592 25.1417 34.603 22.9923 36.7368 20.8315C37.4571 20.1012 38.2884 19.6289 39.316 19.4718C41.5609 19.1297 43.8248 20.9673 43.937 23.2368C43.9987 24.4944 43.6015 25.5669 42.731 26.4756C39.4271 29.9187 36.1299 33.3684 32.817 36.8035C32.6768 36.9494 32.4098 37.0414 32.2023 37.0414C26.198 37.0537 20.1949 37.0537 14.1907 37.0447C13.8732 37.0447 13.6488 37.1379 13.4189 37.3544C11.4747 39.1875 9.51476 41.0061 7.56832 42.8369C7.37199 43.022 7.17903 43.1051 6.90642 43.1039C4.9196 43.0938 2.93165 43.0995 0.944824 43.0995C0.944824 39.2369 0.944824 35.3732 0.944824 31.5106V31.5117ZM15.3047 27.5672C15.4932 27.5672 15.6446 27.5672 15.795 27.5672C18.3416 27.5672 20.8894 27.5695 23.436 27.5661C24.449 27.565 25.1412 26.921 25.1401 26.0011C25.1401 25.0744 24.4569 24.4529 23.4338 24.4529C20.4395 24.4529 17.4441 24.4597 14.4498 24.4496C12.5763 24.4439 10.99 25.1014 9.66958 26.4274C7.69509 28.4109 5.71612 30.3898 3.73042 32.3632C3.53746 32.555 3.45556 32.7458 3.45668 33.0195C3.46678 35.3978 3.46229 37.7773 3.46341 40.1557C3.46341 40.2903 3.47575 40.4249 3.48361 40.5831C4.31491 40.5831 5.11143 40.5999 5.90572 40.5719C6.11663 40.564 6.36905 40.4687 6.52162 40.3273C8.50508 38.4942 10.4773 36.6487 12.4428 34.7976C12.6526 34.6002 12.8613 34.5262 13.1474 34.5262C19.1224 34.534 25.0986 34.5295 31.0737 34.5385C31.3799 34.5385 31.5886 34.451 31.7995 34.23C33.9905 31.9302 36.1927 29.6404 38.3893 27.3473C39.261 26.4375 40.1372 25.5333 40.9943 24.6111C41.4734 24.0962 41.5463 23.4208 41.2344 22.8217C40.927 22.2316 40.3044 21.8693 39.6279 22.0218C39.2453 22.1082 38.8426 22.3326 38.5621 22.6108C36.158 24.9959 33.7785 27.4046 31.3979 29.8143C31.206 30.0084 31.0164 30.0903 30.7427 30.0892C25.747 30.0813 20.7502 30.0836 15.7546 30.0836H15.3013V27.5672H15.3047Z" fill="black"/>
<path d="M31.85 0.10498C31.85 2.77614 31.85 5.44843 31.8478 8.11959C31.8444 12.3703 28.9646 15.8403 24.7834 16.6132C24.3189 16.6985 23.8388 16.7221 23.3654 16.7254C21.3651 16.7366 19.3648 16.7221 17.3645 16.7411C17.1581 16.7434 16.9045 16.8511 16.7553 16.9958C15.9408 17.7833 15.1533 18.5967 14.3915 19.3652C13.779 18.756 13.1912 18.1693 12.5786 17.5601C13.3112 16.8298 14.0819 16.04 14.8807 15.2793C15.1387 15.0336 15.2229 14.7835 15.2206 14.4368C15.2071 12.4085 15.1757 10.3801 15.2217 8.35294C15.316 4.20203 18.4336 0.750053 22.5453 0.184633C22.6249 0.173414 22.7012 0.133027 22.7786 0.106102C25.802 0.106102 28.8255 0.106102 31.8489 0.106102L31.85 0.10498ZM17.6652 12.2884C17.7257 12.3098 17.7852 12.3322 17.8458 12.3535C19.5791 10.6135 21.3123 8.87348 23.0165 7.16376C23.6144 7.75723 24.1955 8.33499 24.8541 8.99016C23.1343 10.7089 21.3942 12.4477 19.6262 14.2147C20.8681 14.2147 22.0831 14.2225 23.2969 14.2136C26.6861 14.1866 29.3157 11.5435 29.3281 8.15212C29.3337 6.44577 29.3281 4.73941 29.3236 3.03305C29.3236 2.91189 29.309 2.78961 29.3023 2.66957C29.2372 2.65274 29.1991 2.63367 29.1598 2.63254C27.2436 2.6303 25.3253 2.57309 23.4114 2.64376C20.72 2.74361 18.391 4.63956 17.9265 7.28717C17.6405 8.91948 17.7392 10.6191 17.6652 12.2896V12.2884Z" fill="black"/>
</g>
<defs>
<clipPath id="clip0_101_1005">
<rect width="43" height="43" fill="white" transform="translate(0.944824 0.10498)"/>
</clipPath>
</defs>
</svg>
