<svg width="46" height="46" viewBox="0 0 46 46" fill="none" xmlns="http://www.w3.org/2000/svg">
<g clip-path="url(#clip0_101_1077)">
<path d="M0.477539 43.4356C4.01754 37.26 7.55645 31.0833 11.0987 24.9099C11.2285 24.6832 11.365 24.4454 11.552 24.2704C12.2101 23.6563 13.1476 23.8533 13.6527 24.714C14.7707 26.6181 15.8744 28.5309 16.9847 30.4394C17.1817 30.7773 17.3798 31.1141 17.6098 31.5048C17.7209 31.3221 17.8056 31.1944 17.8783 31.0602C20.8604 25.6088 23.8436 20.1585 26.8147 14.7016C26.9401 14.4716 27.0116 14.181 27.0116 13.918C27.0237 9.83138 27.0193 5.74588 27.0204 1.65927C27.0204 0.592769 27.5068 0.107395 28.5731 0.107395C31.9855 0.107395 35.3978 0.102992 38.8102 0.109596C39.8468 0.111797 40.5103 1.10015 40.0712 1.98065C39.9634 2.19747 39.7873 2.38898 39.6146 2.56398C38.6968 3.4885 37.7703 4.40532 36.8118 5.35956C36.9351 5.49053 37.0374 5.6061 37.1464 5.71506C38.0146 6.58675 38.896 7.44524 39.751 8.33014C40.5136 9.12038 40.2616 10.2782 39.2701 10.5864C39.0666 10.6491 38.8366 10.648 38.6198 10.648C35.8083 10.6513 32.9956 10.6502 30.1841 10.6502C30.0256 10.6502 29.8672 10.6502 29.657 10.6502C29.657 11.6298 29.6801 12.5763 29.6482 13.5218C29.6295 14.0831 29.7648 14.5641 30.0344 15.0571C35.0743 24.2979 40.101 33.5465 45.1298 42.7939C45.7328 43.9022 45.5766 44.4789 44.5125 45.1041H1.4448C1.00463 44.9005 0.683315 44.5758 0.477539 44.1377C0.477539 43.9033 0.477539 43.6689 0.477539 43.4344V43.4356ZM41.9221 42.4483C39.7884 38.5257 37.6801 34.6515 35.5442 30.7267C34.8256 31.7855 34.1654 32.7694 33.493 33.7435C32.8207 34.7175 31.8325 34.7329 31.1139 33.7842C30.2567 32.6528 29.4094 31.5136 28.5544 30.38C28.4895 30.293 28.4069 30.2182 28.3145 30.118C27.3572 31.3948 26.435 32.6407 25.4953 33.8734C24.8592 34.7065 23.8524 34.6856 23.2482 33.8293C22.6573 32.9929 22.0928 32.1377 21.5162 31.2913C21.3875 31.1031 21.2565 30.9171 21.0991 30.6926C18.9434 34.6383 16.8186 38.5257 14.6761 42.4472H41.9221V42.4483ZM12.4379 27.8948C9.63622 32.7815 6.8786 37.5913 4.10778 42.4219C4.19801 42.4472 4.23653 42.467 4.27504 42.467C6.64641 42.4692 9.01779 42.4736 11.3881 42.4593C11.5201 42.4593 11.7061 42.325 11.7743 42.2018C13.1949 39.6307 14.6024 37.0531 16.0043 34.4721C16.0615 34.3664 16.0802 34.1793 16.0252 34.0836C14.8532 32.0441 13.6681 30.0113 12.4379 27.8959V27.8948ZM32.2408 30.8676C32.8119 30.0278 33.3412 29.221 33.9035 28.4363C34.0883 28.1787 34.0674 27.9938 33.9244 27.733C32.1362 24.4619 30.3591 21.1854 28.5786 17.911C28.5115 17.7878 28.4334 17.6711 28.3596 17.5511C28.3057 17.5831 28.2716 17.5908 28.2606 17.6117C26.3855 21.0346 24.5104 24.4575 22.643 27.8849C22.5979 27.9685 22.5836 28.1237 22.6309 28.1952C23.2163 29.0801 23.8171 29.9562 24.4356 30.8676C25.3511 29.6481 26.2358 28.466 27.1261 27.2872C27.8699 26.3022 28.7998 26.2967 29.5393 27.274C30.4306 28.4517 31.3142 29.6349 32.2397 30.8676H32.2408ZM29.6878 2.75769V7.99225H35.7334C35.1513 7.43423 34.6528 6.96977 34.1709 6.4899C33.3995 5.72386 33.405 5.02827 34.1786 4.25454C34.6583 3.77577 35.1469 3.3058 35.707 2.75659H29.6878V2.75769Z" fill="black"/>
</g>
<defs>
<clipPath id="clip0_101_1077">
<rect width="45" height="45" fill="white" transform="translate(0.477539 0.10498)"/>
</clipPath>
</defs>
</svg>
