<svg width="37" height="39" viewBox="0 0 37 39" fill="none" xmlns="http://www.w3.org/2000/svg">
<g clip-path="url(#clip0_101_1012)">
<path d="M19.9376 27.8069V30.7993C20.0956 30.7993 20.2512 30.7993 20.4057 30.7993C21.6506 30.7993 22.8955 30.7957 24.1405 30.8006C25.0243 30.8042 25.6087 31.4081 25.6111 32.3218C25.6159 33.7381 25.6147 35.1532 25.6111 36.5695C25.6087 37.5088 25.0279 38.1029 24.1072 38.1029C20.3724 38.1053 16.6376 38.1053 12.9028 38.1029C11.9608 38.1029 11.3882 37.5088 11.387 36.5353C11.3846 35.1349 11.3835 33.7344 11.387 32.334C11.3894 31.3922 11.9667 30.803 12.8885 30.8006C14.2653 30.7969 15.6409 30.8006 17.0474 30.8006V27.8911C15.5827 27.6605 14.181 27.214 12.8885 26.4431C10.2443 24.8669 8.48138 22.5686 7.59282 19.5713C7.49423 19.2383 7.36593 19.0931 7.02619 19.0248C3.42086 18.3026 0.863282 15.6896 0.137466 11.9921C0.0471843 11.5334 0.0127348 11.0564 0.00917105 10.5868C-0.00508393 8.59465 -0.000332271 6.60011 0.00323148 4.60556C0.00323148 3.60524 0.569867 3.03067 1.55346 3.02945C3.22842 3.02701 4.90338 3.02945 6.57834 3.02945C6.73871 3.02945 6.90027 3.02945 7.11766 3.02945C7.11766 2.53417 7.11409 2.06816 7.11766 1.60216C7.12716 0.71651 7.70924 0.107779 8.5681 0.107779C15.1931 0.105339 21.8181 0.104119 28.4431 0.107779C29.2735 0.107779 29.8686 0.72261 29.8805 1.57166C29.8864 2.04011 29.8805 2.50855 29.8805 3.02945C30.0753 3.02945 30.2333 3.02945 30.3913 3.02945C32.0805 3.02945 33.7709 3.02823 35.4601 3.02945C36.4318 3.03067 36.9949 3.615 36.9961 4.62264C36.9985 6.57083 37.0032 8.52023 36.9949 10.4684C36.9771 14.5649 33.961 18.227 30.0325 18.915C29.6702 18.9785 29.511 19.1224 29.3887 19.5006C27.9335 24.0203 24.9364 26.7712 20.3772 27.702C20.2905 27.7203 20.2037 27.741 20.117 27.7618C20.0612 27.7752 20.0065 27.7898 19.9365 27.8069H19.9376ZM9.96034 3.04287V3.62476C9.96034 7.7029 9.95202 11.7798 9.96865 15.858C9.97103 16.5387 10.0174 17.2303 10.1457 17.8964C11.0449 22.5735 15.3915 25.6196 19.864 24.8218C24.1904 24.0496 27.0366 20.4741 27.039 15.9592C27.0414 11.8201 27.039 7.68216 27.039 3.54303V3.04287H9.96034ZM7.08558 15.9714V5.98528H2.8566C2.8566 7.55651 2.78652 9.09725 2.88511 10.627C2.93738 11.437 3.17734 12.28 3.52065 13.0156C4.23221 14.5429 5.46645 15.4944 7.08558 15.9726V15.9714ZM29.909 5.96698V15.9299C31.8893 15.6079 33.8743 13.4145 34.0525 11.2089C34.1796 9.63767 34.1273 8.05057 34.1534 6.46958C34.1558 6.30733 34.1534 6.14508 34.1534 5.96576H29.9078L29.909 5.96698ZM14.2487 35.152H22.734V33.7442H14.2487V35.152Z" fill="black"/>
</g>
<defs>
<clipPath id="clip0_101_1012">
<rect width="37" height="38" fill="white" transform="translate(0 0.10498)"/>
</clipPath>
</defs>
</svg>
