<svg width="16" height="14" viewBox="0 0 16 14" fill="none" xmlns="http://www.w3.org/2000/svg">
<path d="M7.35832 11.707H5.08302C5.08302 12.1758 5.08437 12.6024 5.08302 13.0296C5.08101 13.6277 4.74579 13.9958 4.20905 13.9913C3.67834 13.9867 3.34582 13.6121 3.3438 13.0121C3.34179 12.5063 3.3438 12.0005 3.3438 11.4265C2.73853 11.3512 2.14871 11.2584 1.55487 11.2084C0.904589 11.1538 0.530411 10.5876 0.834724 10.0708C1.00871 9.77535 1.28481 9.66367 1.62473 9.69614C2.18835 9.75003 2.75062 9.81236 3.34246 9.8734C3.34246 9.22605 3.3485 8.55921 3.33305 7.89303C3.33171 7.83005 3.20273 7.73071 3.11943 7.71577C2.67203 7.63461 2.21992 7.57487 1.76983 7.50865C1.72617 7.50215 1.68049 7.50345 1.63615 7.5002C1.03894 7.45086 0.696339 7.13919 0.730599 6.67689C0.765532 6.2068 1.18136 5.92565 1.77588 5.9763C2.03115 5.99772 2.28643 6.02305 2.54036 6.05746C2.79362 6.09252 3.04419 6.14122 3.32029 6.18797V4.00372C2.73181 3.92516 2.14267 3.83101 1.54882 3.77257C1.03558 3.72257 0.705744 3.4252 0.728584 2.97978C0.751424 2.54734 1.0947 2.24347 1.59181 2.27334C2.16618 2.30775 2.73853 2.38567 3.34246 2.44735C3.34246 1.91557 3.33238 1.37795 3.34582 0.840979C3.35724 0.402702 3.67566 0.0605203 4.08746 0.00792699C4.52478 -0.0472635 4.92045 0.189731 5.04406 0.594245C5.07765 0.705276 5.08034 0.827344 5.08101 0.944867C5.08437 1.54677 5.08235 2.14867 5.08235 2.74927H7.35765C7.35765 2.51293 7.35765 2.32398 7.35765 2.13504C7.35765 1.70325 7.34959 1.27211 7.35967 0.840979C7.37109 0.352056 7.74325 0.00273259 8.23029 0.00403119C8.71934 0.00532979 9.08478 0.354653 9.09419 0.846823C9.10359 1.33055 9.0962 1.81428 9.0962 2.32074C9.49322 2.30061 9.86539 2.27399 10.2389 2.26425C10.6037 2.25451 10.9698 2.2623 11.3722 2.2623C11.3722 1.80779 11.3708 1.3799 11.3722 0.95136C11.3742 0.375431 11.7074 0.00727769 12.2273 0.00403119C12.7654 0.000784685 13.1087 0.371535 13.1114 0.964996C13.1141 1.47145 13.1114 1.97726 13.1114 2.56357C13.7153 2.64019 14.3139 2.73304 14.9158 2.78693C15.5466 2.84342 15.914 3.39598 15.6299 3.90827C15.4633 4.2089 15.1872 4.32837 14.8486 4.29915C14.2843 4.25046 13.7214 4.18682 13.1127 4.12514C13.1127 4.77184 13.108 5.44452 13.1215 6.11655C13.1228 6.17368 13.241 6.26394 13.317 6.27757C13.765 6.35679 14.2165 6.41977 14.6666 6.4847C14.7875 6.50223 14.9118 6.50223 15.032 6.52236C15.4787 6.59703 15.7615 6.93142 15.7226 7.33268C15.685 7.72616 15.333 8.04886 14.8963 8.02159C14.3092 7.98523 13.7247 7.90017 13.1255 7.83395V9.98508C13.7073 10.0649 14.2944 10.1617 14.8862 10.2208C15.4122 10.2734 15.736 10.5513 15.7233 10.998C15.7105 11.4441 15.3625 11.7525 14.8452 11.7213C14.2803 11.6875 13.7187 11.6109 13.1094 11.5479C13.1094 12.0576 13.1181 12.581 13.1074 13.1037C13.0933 13.7926 12.4248 14.2049 11.831 13.8958C11.52 13.7341 11.3675 13.4744 11.3688 13.1296C11.3708 12.505 11.3688 11.8804 11.3688 11.2506H9.09284C9.09284 11.9154 9.09553 12.5264 9.0915 13.1374C9.08949 13.4783 8.93431 13.7426 8.61992 13.8997C8.31896 14.0503 8.0133 14.0302 7.73317 13.8458C7.46379 13.6686 7.34959 13.4108 7.35228 13.0972C7.35631 12.6251 7.35295 12.1524 7.35295 11.7057L7.35832 11.707ZM7.33145 6.46457V4.28617H5.10519V6.46457H7.33145ZM11.3587 7.5476H9.11501V9.70588H11.3587V7.5476ZM11.3567 3.73621C10.5788 3.77257 9.84456 3.80633 9.11501 3.84075V5.98019H11.3567V3.73686V3.73621ZM5.10586 8.00991V10.2558C5.86766 10.2227 6.60325 10.1916 7.33616 10.1597V8.00991H5.10586Z" fill="#9ECC43"/>
</svg>
