<svg width="20" height="17" viewBox="0 0 20 17" fill="none" xmlns="http://www.w3.org/2000/svg">
<path d="M18.0905 5.79304V5.75149C18.0905 5.70052 18.0918 5.65228 18.093 5.60568C18.0956 5.50855 18.0981 5.41855 18.0882 5.32581L18.0905 5.79304ZM18.0905 5.79304L18.0909 5.79346M18.0905 5.79304L18.0909 5.79346M18.0909 5.79346C18.0769 6.94518 17.6291 7.9598 17.0034 8.91779L17.0034 8.91781C15.9287 10.5641 14.5216 11.9095 12.9865 13.1303L13.0488 13.2086L12.9865 13.1304C12.2466 13.7189 11.4712 14.2639 10.6937 14.8105C10.5255 14.9288 10.3571 15.0471 10.189 15.166C10.1568 15.1887 10.0948 15.2109 10.0264 15.2191C9.99353 15.223 9.96299 15.2233 9.93794 15.2201C9.91173 15.2169 9.89803 15.2108 9.8931 15.2075L9.89272 15.2073C7.44376 13.597 5.15348 11.8149 3.38639 9.45955L18.0909 5.79346ZM17.9934 4.80471L17.9933 4.80468C17.5494 3.15078 16.4996 2.08 14.8329 1.72061C13.1327 1.35412 11.7208 1.92433 10.6301 3.28564L10.6301 3.2857C10.4377 3.52546 10.2314 3.67004 10.0049 3.6697C9.77863 3.66935 9.57226 3.52434 9.37962 3.2851L9.37961 3.28508C8.31723 1.9651 6.95432 1.41966 5.27463 1.69594C3.13433 2.04812 1.60074 4.22578 1.95736 6.36181C2.15132 7.52342 2.68745 8.52747 3.38638 9.45953L17.9934 4.80471ZM17.9934 4.80471C18.0387 4.9734 18.0687 5.14948 18.0881 5.3255L17.9934 4.80471ZM12.509 0.452091L12.5089 0.452103C11.5485 0.718384 10.7281 1.2099 10.0103 1.90735C8.65942 0.645262 7.11038 0.0834898 5.27376 0.315414L5.27375 0.315415C2.19519 0.704485 -0.0105768 3.80303 0.649582 6.82383L0.649586 6.82384C0.95918 8.23926 1.65076 9.45812 2.52514 10.5737L2.60384 10.512L2.52514 10.5737C4.43475 13.0099 6.84122 14.8761 9.4133 16.542C9.61919 16.6758 9.81601 16.7475 10.0192 16.7465C10.2221 16.7454 10.4183 16.6718 10.6233 16.5392C12.3278 15.4368 13.9503 14.2278 15.427 12.8307L15.427 12.8307C16.7536 11.5751 17.9624 10.2108 18.7688 8.53832C19.3055 7.4251 19.5901 6.26123 19.4172 4.9956L19.4172 4.99556C18.9692 1.72703 15.699 -0.430732 12.509 0.452091ZM3.30639 9.51954C5.08367 11.8885 7.38511 13.6782 9.83778 15.2908L3.30639 9.51954Z" fill="#333333" stroke="#333333" stroke-width="0.2"/>
</svg>
