<svg width="46" height="27" viewBox="0 0 46 27" fill="none" xmlns="http://www.w3.org/2000/svg">
<path d="M43.434 6.55965C43.297 6.34365 43.158 6.12965 43.01 5.92165C41.504 3.74465 39.344 2.04865 36.799 1.09865C36.75 1.07965 36.703 1.06165 36.654 1.04365C36.48 0.980652 36.304 0.918652 36.127 0.863652C35.926 0.799652 35.723 0.742652 35.521 0.688652C35.377 0.651652 35.237 0.617652 35.09 0.584652C34.893 0.539652 34.692 0.497652 34.487 0.460652C34.392 0.442652 34.3 0.424652 34.205 0.409652C33.914 0.363652 33.615 0.328652 33.317 0.301652C33.24 0.295652 33.162 0.289652 33.086 0.283652C32.766 0.260652 32.441 0.243652 32.113 0.243652C28.929 0.243652 26.035 1.32865 23.718 3.21165C25.454 4.87565 26.756 6.97465 27.481 9.36265H26.441C25.716 7.29365 24.568 5.43665 22.994 3.93465C22.971 3.91165 22.947 3.88565 22.923 3.86265C21.33 5.38165 20.172 7.26365 19.449 9.36265H18.508C19.231 6.97465 20.533 4.87565 22.272 3.21165C21.359 2.51965 20.372 1.92365 19.327 1.45165C19.309 1.44265 19.29 1.43565 19.271 1.42765C19.028 1.31965 18.782 1.21765 18.532 1.12065C18.351 1.05165 18.168 0.986652 17.983 0.925652C17.839 0.877652 17.697 0.832653 17.552 0.790653C17.36 0.732653 17.166 0.679652 16.969 0.631652C16.719 0.569652 16.465 0.511652 16.209 0.463652C16.145 0.451652 16.08 0.441652 16.016 0.430652C15.317 0.310652 14.604 0.244652 13.877 0.244652C13.865 0.244652 13.852 0.246652 13.84 0.246652C13.826 0.246652 13.817 0.244652 13.805 0.244652C6.49504 0.245652 0.561035 6.25165 0.561035 13.5597C0.561035 20.8707 6.49604 26.8757 13.877 26.8757C17.061 26.8757 19.956 25.7167 22.199 23.9067C20.463 22.2437 19.159 20.1447 18.436 17.7567H19.521C20.246 19.8567 21.402 21.7367 22.996 23.2567C24.587 21.7367 25.816 19.8567 26.469 17.7567H27.554C26.83 20.1457 25.528 22.2437 23.791 23.9067C26.107 25.7887 29.001 26.8757 32.187 26.8757C39.496 26.8757 45.43 20.8687 45.43 13.5597C45.43 10.9977 44.7 8.60065 43.435 6.55965C43.436 6.56165 43.434 6.55965 43.434 6.55965ZM6.56804 16.6747L7.36404 12.4767L5.48204 16.6747H4.25204L3.89005 12.4057L3.02104 16.6747H1.71904L2.87704 10.7397H4.97604L5.26604 14.3577L6.85803 10.7397H9.10104L7.94304 16.6747H6.56804ZM12.431 16.7467H11.201L11.057 16.4567C10.839 16.6027 10.622 16.7467 9.97205 16.7467C9.32105 16.7467 8.45205 16.2397 8.59705 15.2257C8.95905 13.1257 11.347 13.4887 11.709 13.4887C11.925 12.7637 11.347 12.8367 10.913 12.8367C10.48 12.8367 9.61103 12.9827 9.24803 12.9827L9.46603 11.8977C10.335 11.7527 10.769 11.7527 11.059 11.8257C13.302 11.8257 13.086 13.4177 12.94 14.0687L12.431 16.7467ZM16.773 15.2287C16.556 16.6747 14.964 16.6037 14.602 16.6037C14.095 16.6037 13.662 16.6037 13.011 16.4577L13.227 15.4447C13.878 15.6617 14.748 15.5897 14.964 15.5897C15.399 15.5897 15.471 15.0107 15.109 14.8667C14.82 14.7207 14.53 14.5047 14.025 14.2877C13.734 14.1417 13.373 13.7787 13.59 12.8397C13.807 11.6817 15.4 11.6817 15.616 11.6817C15.761 11.6817 16.266 11.6817 16.919 11.8987L16.63 12.9117C16.267 12.8387 15.616 12.8387 15.4 12.7657C14.893 12.9117 15.11 13.3447 15.4 13.4907C15.689 13.5627 16.051 13.8537 16.341 13.9967C16.556 14.2147 16.918 14.5047 16.773 15.2287ZM19.016 16.4567C18.727 16.6747 18.367 16.6747 18.003 16.6747C17.714 16.6747 16.7 16.4567 16.917 15.1537L17.931 10.5227H19.234L18.945 11.8257H19.669L19.452 12.8387H18.8L18.439 14.7937C18.368 15.1537 18.439 15.5177 19.162 15.3727L19.016 16.4567ZM23.43 16.4567C23.069 16.6027 22.273 16.6747 21.693 16.6747C19.378 16.6747 19.378 14.5037 19.451 14.2137C19.451 13.9247 19.74 11.7537 21.911 11.7537C24.226 11.7537 23.866 13.7077 23.722 14.5037H20.899C20.754 15.5887 21.623 15.5887 22.129 15.5887C22.709 15.5887 23.431 15.5177 23.649 15.4447L23.43 16.4567ZM25.531 14.5047L25.095 16.7487H23.721V16.6747L24.661 11.8267H25.819L25.964 12.3327C26.181 12.1167 26.543 11.8267 27.267 11.8267L26.905 13.1297C26.615 13.1287 25.964 13.0567 25.531 14.5047ZM30.594 15.1537L30.957 16.3837C30.521 16.6027 30.088 16.6727 29.364 16.6727C27.989 16.6727 26.468 15.4437 27.121 12.9097C27.627 11.1007 29.221 10.3767 30.16 10.4497C31.246 10.5217 31.681 10.8827 31.971 11.2447L31.103 12.1137C30.742 11.8957 30.523 11.8957 30.088 11.8957C29.654 11.8957 28.641 12.3297 28.494 13.4877C28.279 14.9377 29.219 15.5887 30.594 15.1537ZM35.516 14.0697L35.01 16.7487H33.781L33.635 16.4577C33.418 16.6037 33.199 16.7487 32.549 16.7487C31.899 16.7487 31.029 16.2417 31.174 15.2277C31.536 13.1277 33.924 13.4907 34.285 13.4907C34.431 12.7657 33.924 12.8387 33.49 12.8387C33.054 12.8387 32.188 12.9847 31.825 12.9847L32.043 11.8997C32.91 11.7547 33.418 11.7547 33.635 11.8277C35.88 11.8257 35.662 13.4177 35.516 14.0697ZM37.471 14.4307L37.035 16.6747H35.66L36.599 11.7547H37.757L37.902 12.2597C38.119 12.0437 38.482 11.7547 39.205 11.7547L38.844 13.0567C38.484 13.0567 37.904 12.9837 37.471 14.4307ZM43.044 16.6747H41.597L41.452 16.3127C41.163 16.4587 40.727 16.6747 40.294 16.6747C39.354 16.6747 38.484 15.3727 38.921 13.8537C39.57 11.6087 40.73 11.7547 41.452 11.7547C42.031 11.7547 42.177 12.1167 42.466 12.3337L42.826 10.4527H44.201L43.044 16.6747Z" fill="#DFDFDF"/>
</svg>
