<svg width="61" height="37" viewBox="0 0 61 37" fill="none" xmlns="http://www.w3.org/2000/svg">
<rect x="0.5" y="0.5" width="60" height="36" rx="18" fill="white" fill-opacity="0.55"/>
<rect x="0.5" y="0.5" width="60" height="36" rx="18" stroke="#9ECC43"/>
<path d="M32.8466 10.3141C34.7922 10.3141 36.7395 10.3663 38.6819 10.2964C40.0879 10.2459 41.3244 11.5304 40.9222 13.165C40.3445 15.5125 39.8306 17.876 39.286 20.232C39.0179 21.3902 38.225 22.0366 37.0706 22.0375C33.6626 22.04 30.2546 22.04 26.8466 22.0375C25.7285 22.0366 24.8951 21.3725 24.6427 20.2598C24.0237 17.5335 23.4162 14.8046 22.8038 12.0775C22.7889 12.0093 22.7599 11.9411 22.7591 11.8729C22.75 10.7888 22.1343 10.2215 21.1809 9.92268C20.9335 9.84524 20.6993 9.71478 20.4692 9.58936C20.0405 9.35368 19.8899 8.90925 20.0827 8.48755C20.2656 8.08858 20.7075 7.88489 21.1238 8.06754C21.8182 8.3714 22.5084 8.69125 23.1754 9.0515C23.7001 9.33516 23.9955 9.82757 24.1271 10.4151C24.8198 13.4974 25.5125 16.579 26.2027 19.6613C26.3376 20.2632 26.4402 20.3541 27.0344 20.3541C30.3315 20.3541 33.6295 20.3541 36.9266 20.3541C37.4835 20.3541 37.5828 20.269 37.7103 19.7135C38.2292 17.4518 38.7514 15.1918 39.2695 12.9301C39.4416 12.1785 39.2926 11.9916 38.5379 11.9916C34.6888 11.9916 30.8388 11.9916 26.9897 11.9908C26.825 11.9908 26.657 11.9933 26.4948 11.9672C26.0347 11.8923 25.7591 11.5447 25.7806 11.0901C25.8022 10.6449 26.1224 10.3233 26.5958 10.32C27.934 10.3099 29.2722 10.3158 30.6104 10.3149C31.3553 10.3149 32.1009 10.3149 32.8457 10.3149L32.8466 10.3141ZM25.4082 25.8269C25.4033 27.0263 26.3558 28.0095 27.5144 28.0002C28.6573 27.9909 29.619 27.0095 29.6198 25.8505C29.6198 24.6822 28.6722 23.7201 27.5161 23.7167C26.3384 23.7133 25.4132 24.6392 25.4082 25.8269ZM28.299 25.8639C28.2882 26.2823 27.8993 26.6644 27.4904 26.656C27.0626 26.6476 26.7249 26.2831 26.7299 25.8353C26.7348 25.3825 27.0708 25.0534 27.5202 25.0601C27.9555 25.0668 28.3097 25.4321 28.299 25.8631V25.8639ZM36.9415 23.7159C35.7779 23.7167 34.8394 24.6611 34.8303 25.8387C34.822 27.0146 35.8102 28.017 36.9605 27.9994C38.1191 27.9817 39.0386 27.0238 39.0353 25.8378C39.0319 24.6434 38.1158 23.715 36.9415 23.7159ZM36.9514 26.656C36.5417 26.6627 36.1561 26.2806 36.1478 25.8597C36.1395 25.4262 36.4913 25.066 36.9282 25.0609C37.3793 25.0559 37.7111 25.3833 37.7144 25.8387C37.7186 26.2848 37.3776 26.6492 36.9506 26.656H36.9514Z" fill="#333333"/>
</svg>
