<svg width="13" height="11" viewBox="0 0 13 11" fill="none" xmlns="http://www.w3.org/2000/svg">
<path d="M5.616 10.836C5.42933 10.836 5.336 10.7427 5.336 10.556V6.58H0.856C0.669334 6.58 0.576 6.48667 0.576 6.3V4.872C0.576 4.68533 0.669334 4.592 0.856 4.592H5.336V0.616C5.336 0.429333 5.42933 0.335999 5.616 0.335999H7.184C7.37067 0.335999 7.464 0.429333 7.464 0.616V4.592H11.944C12.1307 4.592 12.224 4.68533 12.224 4.872V6.3C12.224 6.48667 12.1307 6.58 11.944 6.58H7.464V10.556C7.464 10.7427 7.37067 10.836 7.184 10.836H5.616Z" fill="#0098D2"/>
</svg>
