<svg width="41" height="40" viewBox="0 0 41 40" fill="none" xmlns="http://www.w3.org/2000/svg">
<path d="M19.7111 29.1234C19.7111 29.2246 19.7478 29.3296 19.8435 29.4013C19.9283 29.465 20.0317 29.4807 20.1208 29.4807H20.8549C20.944 29.4807 21.0473 29.465 21.1322 29.4013C21.2278 29.3296 21.2646 29.2246 21.2646 29.1234V20.7767H30.3453C30.446 20.7767 30.5583 20.7514 30.644 20.6657C30.7297 20.58 30.755 20.4678 30.755 20.367V19.6329C30.755 19.5322 30.7297 19.4199 30.644 19.3342C30.5583 19.2485 30.446 19.2232 30.3453 19.2232H21.2646V10.929C21.2646 10.8283 21.2393 10.716 21.1536 10.6303C21.0679 10.5446 20.9556 10.5193 20.8549 10.5193H20.1208C20.0201 10.5193 19.9078 10.5446 19.8221 10.6303C19.7364 10.716 19.7111 10.8283 19.7111 10.929V19.2232H10.6304C10.5296 19.2232 10.4174 19.2485 10.3317 19.3342C10.246 19.4199 10.2207 19.5322 10.2207 19.6329V20.367C10.2207 20.4678 10.246 20.58 10.3317 20.6657C10.4174 20.7514 10.5296 20.7767 10.6304 20.7767H19.7111V29.1234Z" fill="#9ECC43" stroke="#9ECC43" stroke-width="0.4"/>
</svg>
