<svg width="15" height="14" viewBox="0 0 15 14" fill="none" xmlns="http://www.w3.org/2000/svg">
<path d="M6.63103 11.707H4.35573C4.35573 12.1758 4.35707 12.6024 4.35573 13.0296C4.35371 13.6277 4.0185 13.9958 3.48175 13.9913C2.95105 13.9867 2.61852 13.6121 2.61651 13.0121C2.61449 12.5063 2.61651 12.0005 2.61651 11.4265C2.01124 11.3512 1.42142 11.2584 0.827571 11.2084C0.177294 11.1538 -0.196884 10.5876 0.107429 10.0708C0.281419 9.77535 0.557518 9.66367 0.897436 9.69614C1.46105 9.75003 2.02333 9.81236 2.61516 9.8734C2.61516 9.22605 2.62121 8.55921 2.60576 7.89303C2.60441 7.83005 2.47543 7.73071 2.39213 7.71577C1.94473 7.63461 1.49263 7.57487 1.04254 7.50865C0.998874 7.50215 0.953193 7.50345 0.908856 7.5002C0.311649 7.45086 -0.0309561 7.13919 0.0033044 6.67689C0.0382367 6.2068 0.454065 5.92565 1.04859 5.9763C1.30386 5.99772 1.55913 6.02305 1.81306 6.05746C2.06632 6.09252 2.31689 6.14122 2.59299 6.18797V4.00372C2.00452 3.92516 1.41537 3.83101 0.821525 3.77257C0.30829 3.72257 -0.0215512 3.4252 0.00128908 2.97978C0.0241294 2.54734 0.367406 2.24347 0.864519 2.27334C1.43889 2.30775 2.01124 2.38567 2.61516 2.44735C2.61516 1.91557 2.60509 1.37795 2.61852 0.840979C2.62994 0.402702 2.94836 0.0605203 3.36016 0.00792699C3.79749 -0.0472635 4.19316 0.189731 4.31677 0.594245C4.35036 0.705276 4.35304 0.827344 4.35371 0.944867C4.35707 1.54677 4.35506 2.14867 4.35506 2.74927H6.63036C6.63036 2.51293 6.63036 2.32398 6.63036 2.13504C6.63036 1.70325 6.6223 1.27211 6.63237 0.840979C6.64379 0.352056 7.01596 0.00273259 7.50299 0.00403119C7.99204 0.00532979 8.35749 0.354653 8.36689 0.846823C8.3763 1.33055 8.36891 1.81428 8.36891 2.32074C8.76593 2.30061 9.13809 2.27399 9.5116 2.26425C9.87637 2.25451 10.2425 2.2623 10.6449 2.2623C10.6449 1.80779 10.6435 1.3799 10.6449 0.95136C10.6469 0.375431 10.9801 0.00727769 11.5 0.00403119C12.0381 0.000784685 12.3814 0.371535 12.3841 0.964996C12.3868 1.47145 12.3841 1.97726 12.3841 2.56357C12.988 2.64019 13.5866 2.73304 14.1885 2.78693C14.8193 2.84342 15.1867 3.39598 14.9026 3.90827C14.736 4.2089 14.4599 4.32837 14.1213 4.29915C13.557 4.25046 12.9941 4.18682 12.3854 4.12514C12.3854 4.77184 12.3807 5.44452 12.3942 6.11655C12.3955 6.17368 12.5138 6.26394 12.5897 6.27757C13.0377 6.35679 13.4892 6.41977 13.9393 6.4847C14.0602 6.50223 14.1845 6.50223 14.3047 6.52236C14.7514 6.59703 15.0343 6.93142 14.9953 7.33268C14.9577 7.72616 14.6057 8.04886 14.169 8.02159C13.5819 7.98523 12.9974 7.90017 12.3982 7.83395V9.98508C12.98 10.0649 13.5671 10.1617 14.1589 10.2208C14.6849 10.2734 15.0087 10.5513 14.996 10.998C14.9832 11.4441 14.6352 11.7525 14.118 11.7213C13.553 11.6875 12.9914 11.6109 12.3821 11.5479C12.3821 12.0576 12.3908 12.581 12.3801 13.1037C12.366 13.7926 11.6975 14.2049 11.1037 13.8958C10.7927 13.7341 10.6402 13.4744 10.6415 13.1296C10.6435 12.505 10.6415 11.8804 10.6415 11.2506H8.36555C8.36555 11.9154 8.36824 12.5264 8.36421 13.1374C8.36219 13.4783 8.20701 13.7426 7.89262 13.8997C7.59167 14.0503 7.28601 14.0302 7.00588 13.8458C6.7365 13.6686 6.6223 13.4108 6.62498 13.0972C6.62901 12.6251 6.62565 12.1524 6.62565 11.7057L6.63103 11.707ZM6.60416 6.46457V4.28617H4.3779V6.46457H6.60416ZM10.6314 7.5476H8.38772V9.70588H10.6314V7.5476ZM10.6294 3.73621C9.85151 3.77257 9.11726 3.80633 8.38772 3.84075V5.98019H10.6294V3.73686V3.73621ZM4.37857 8.00991V10.2558C5.14036 10.2227 5.87595 10.1916 6.60886 10.1597V8.00991H4.37857Z" fill="#9ECC43"/>
</svg>
