<svg width="20" height="19" viewBox="0 0 20 19" fill="none" xmlns="http://www.w3.org/2000/svg">
<path d="M13.7277 7.06582C13.7883 8.43232 13.2343 9.53359 12.1861 10.3791C13.2412 10.9177 13.9081 11.334 14.4417 11.9258C14.9761 12.5186 15.3709 13.2812 15.898 14.5C18.6421 11.1989 18.1756 6.20058 14.8685 3.49901L14.8685 3.49901C11.3861 0.653833 6.40853 1.19607 3.64557 4.74019L3.56671 4.67871L3.64557 4.7402C1.03978 8.08248 1.86629 12.3671 3.81236 14.4667C4.41304 12.548 5.64952 11.1945 7.49573 10.3912M13.7277 7.06582C13.7277 7.06582 13.7277 7.06583 13.7277 7.06584L13.6278 7.07025L13.7277 7.06582ZM13.7277 7.06582C13.6813 6.01439 13.2503 5.10879 12.4624 4.40316L12.4624 4.40314C10.8757 2.98304 8.51331 3.06525 7.06138 4.56109C5.68384 5.98024 5.38627 8.62546 7.49573 10.3912M7.49573 10.3912C7.52433 10.4152 7.55337 10.4389 7.58286 10.4626L12.3957 4.47765C10.8484 3.09282 8.54716 3.17395 7.13314 4.63074C5.783 6.02165 5.49626 8.62247 7.59917 10.3471C7.56448 10.3616 7.53 10.3763 7.49573 10.3912ZM5.0174 15.8371C4.80794 15.6805 4.75575 15.5175 4.8023 15.272C5.25295 12.8875 7.40959 11.0921 9.83917 11.0858C12.2892 11.0794 14.4557 12.8784 14.9014 15.2791L5.0174 15.8371ZM5.0174 15.8371C6.44975 16.9115 8.05913 17.454 9.8441 17.4815L5.0174 15.8371ZM14.6165 15.7613L14.6165 15.7613C13.201 16.8219 11.6126 17.3561 9.84416 17.3815C8.08061 17.3541 6.49226 16.8184 5.0774 15.7571L5.07728 15.757C4.98269 15.6863 4.93247 15.6208 4.90772 15.5534C4.88276 15.4854 4.8792 15.4032 4.90055 15.2906L4.90056 15.2906C5.34231 12.9532 7.45789 11.192 9.83943 11.1858C12.2412 11.1795 14.3662 12.9441 14.8031 15.2973L14.8031 15.2973C14.8241 15.4104 14.8176 15.492 14.7904 15.5592C14.763 15.6267 14.71 15.6913 14.6165 15.7613ZM9.86766 4.63762L9.8677 4.63762C11.3012 4.64305 12.4882 5.83698 12.4882 7.27201V7.27272C12.4882 8.71655 11.2709 9.92636 9.83231 9.91346C8.39976 9.90055 7.21128 8.70208 7.21128 7.2706C7.21128 5.82166 8.41129 4.6315 9.86766 4.63762ZM0.750098 9.52383C0.748672 14.549 4.82312 18.6291 9.84337 18.6306C14.8526 18.6313 18.9423 14.5637 18.9494 9.57198C18.9565 4.51881 14.8915 0.43199 9.85612 0.430564C4.8318 0.429137 0.751524 4.50416 0.750098 9.52383Z" fill="#333333" stroke="#333333" stroke-width="0.2"/>
</svg>
