<svg width="72" height="49" viewBox="0 0 72 49" fill="none" xmlns="http://www.w3.org/2000/svg">
<path d="M45.8965 7.50006C45.8965 7.50006 45.1571 8.66617 45.2628 8.66617C45.6852 8.77218 45.6852 8.03011 46.8471 7.39405C48.0089 6.75799 50.3325 6.864 51.8112 6.12193C53.1843 5.37986 54.3461 4.53178 54.6629 3.36568C54.7686 3.15366 54.5573 3.25967 54.2405 3.5777C53.9236 3.89573 53.2899 4.31976 50.5438 4.53178C47.692 4.7438 45.8965 7.50006 45.8965 7.50006Z" fill="#252525"/>
<path d="M47.5869 24.2497C52.8678 23.0836 57.9376 21.9175 57.7264 21.8115C57.7264 21.8115 38.7148 24.2498 22.555 28.0661C22.4493 28.7022 22.1325 29.5502 22.0269 30.2923C28.5753 28.3841 35.9687 26.688 47.5869 24.2497Z" fill="#252525"/>
<path d="M14.2108 30.6104C8.29611 32.2005 3.86008 33.7906 2.59264 34.7447C1.3252 35.8048 0.0577642 39.3032 0.797103 38.9851C1.21958 38.8791 2.59264 36.5469 13.049 33.1546C13.5771 31.5644 13.7883 31.3524 14.2108 30.6104Z" fill="#252525"/>
<path d="M29.3143 16.9346C29.1031 17.5706 28.6806 18.2067 27.73 18.7367C27.73 18.7367 27.73 18.4187 27.73 17.8887C27.6244 18.7367 27.73 19.5848 27.73 19.5848C28.575 18.7367 29.1031 17.6766 29.3143 16.9346Z" fill="#252525"/>
<path d="M29.4202 16.5107C29.4202 16.6168 29.4202 16.7228 29.3145 16.8288C29.3145 16.8288 29.4202 16.7228 29.4202 16.5107Z" fill="#252525"/>
<path d="M27.73 17.8891C27.73 17.2531 27.8357 16.511 28.1528 15.981C27.8357 16.617 27.73 17.3591 27.73 17.8891Z" fill="#252525"/>
<path d="M70.6119 7.39406C70.6119 7.39406 71.2456 8.45416 71.0344 9.09022C70.8231 9.62027 70.6119 9.83229 69.7669 10.3623C68.3939 11.1044 67.9714 11.1044 67.9714 11.1044H67.8658C67.8658 10.4683 68.3939 8.66618 67.1264 8.24214C67.1264 8.24214 66.4927 8.03012 65.6477 8.66618C65.3309 8.8782 64.0634 10.8924 64.0634 10.8924L64.3803 8.13613C64.3803 8.13613 63.3241 7.92411 62.9016 9.09022C62.6904 9.62027 62.0567 15.9809 62.0567 15.9809L61.2117 16.9349L60.578 17.677C60.578 17.677 61.3173 11.3164 61.6342 9.72628C61.7398 9.19623 61.3173 8.77219 61.2117 8.8782C60.8949 9.09022 60.578 9.30224 60.1555 9.9383C60.1555 10.0443 60.0499 10.8924 60.0499 11.3164C60.0499 11.3164 59.5218 8.98421 58.8881 9.09022C58.2544 9.19623 57.1982 10.5744 56.4588 12.1645C56.3532 12.3765 55.297 15.3448 54.3464 17.147C54.0296 17.783 53.7127 18.3131 53.5015 18.4191C53.5015 18.4191 54.1352 13.5426 54.2408 10.3623C54.2408 10.3623 54.2408 9.51426 53.7127 9.62027C53.2902 9.62027 52.3396 10.1503 52.1284 10.5744C51.9172 10.8924 50.6497 16.5109 50.6497 16.5109L51.1778 10.6804C51.1778 10.6804 51.1778 9.83229 50.2273 10.1503C49.2767 10.4683 49.0654 10.7864 49.0654 10.7864L47.2699 17.465C47.2699 17.465 47.5868 12.1645 47.6924 11.2104C47.6924 10.6804 47.2699 10.4683 46.8474 10.6804C46.3193 10.8924 45.7912 11.2104 45.6856 11.5284C45.58 11.8465 44.735 14.3907 43.362 16.9349C42.8339 17.995 42.0945 19.1612 41.4608 20.0092C41.4608 20.0092 40.6158 17.995 40.7215 15.5568C40.8271 13.2246 41.7777 12.2705 41.7777 12.2705C41.7777 12.2705 42.517 15.6628 42.8339 15.2388C43.1507 14.9208 44.1013 13.4366 43.8901 13.1186C43.7844 12.6946 43.6788 12.3765 43.6788 12.3765C43.6788 12.3765 43.5732 11.8465 43.5732 11.4224C43.5732 10.8924 42.9395 10.8924 42.0945 11.2104C41.2496 11.5284 39.8765 12.9066 39.1372 14.4967C38.7147 15.2388 38.1866 16.2989 37.7641 17.147C37.3416 17.995 36.8135 18.7371 36.8135 18.7371C36.8135 18.7371 37.9754 15.4508 37.0248 12.8006C35.7573 10.2563 34.7011 8.8782 34.7011 8.8782C34.7011 8.8782 34.2787 8.56017 36.6023 7.07603C38.9259 5.59189 40.7215 3.15366 40.4046 1.98756C40.0877 0.715438 38.8203 0.503418 38.8203 0.503418C38.8203 0.503418 40.1934 1.77554 38.7147 2.83563C37.1304 4.00174 32.1663 6.54598 33.1168 7.8181C34.0674 9.19623 34.3843 9.62027 34.8068 10.2563C35.2292 10.8924 35.6517 12.0585 35.6517 12.0585C35.6517 12.0585 33.9618 13.1186 32.9056 14.8147C31.8494 16.6169 31.7438 17.571 30.3707 19.9032C30.1595 20.2213 30.0539 20.5393 29.8426 20.7513C29.2089 21.5994 28.5752 22.4475 28.5752 22.4475C28.4696 22.5535 27.8358 20.2213 28.0471 20.0092C28.2583 19.7972 31.0044 17.041 31.1101 15.7688C31.2157 14.4967 31.2157 11.8465 29.737 12.6946C28.2583 13.5426 27.3078 14.8147 27.0965 15.1328C26.8853 15.4508 25.4066 17.571 25.7235 20.6453L24.2448 21.7054L22.6605 22.7655L26.3572 10.0443C26.3572 10.0443 27.3078 6.97002 25.6178 8.45416C24.8785 9.09022 24.6673 9.09022 24.456 9.83229C24.2448 10.5744 23.1886 13.7547 23.1886 13.7547L19.2806 18.4191C19.2806 18.4191 18.6469 16.6169 19.4919 14.0727C20.3368 11.5284 21.393 8.34815 20.9706 7.50007C20.8649 7.18204 19.9144 7.28805 19.4919 7.50007C18.8582 7.71209 14.8446 9.62027 12.521 12.1645C10.1973 14.6027 8.29618 17.783 8.08494 19.6912C7.8737 21.5994 8.29618 27.5359 14.1053 27.4299C14.1053 27.4299 14.5278 27.4299 14.5278 27.2179C14.5278 27.0059 14.4221 26.8999 13.9997 26.6879C13.5772 26.3698 8.71866 22.7655 10.303 16.1929C10.303 16.0869 11.0423 13.0126 18.6469 9.09022C18.6469 9.09022 17.5907 13.2246 17.0626 14.7087C16.6402 16.1929 16.4289 17.571 16.8514 19.2672C17.2739 20.9633 18.1188 21.2814 18.3301 21.0693C18.5413 20.8573 22.6605 15.8748 22.6605 15.8748L19.9144 24.8857C19.9144 24.8857 16.7458 27.6419 14.739 31.5643C14.3165 32.3064 13.9997 33.0484 13.7884 33.8965C13.7884 34.1085 13.6828 34.2146 13.6828 34.4266C12.2041 39.303 12.7322 42.8014 14.3165 46.5117C14.739 47.6778 15.2671 48.2079 15.6896 48.4199C16.8514 48.9499 17.802 46.8297 17.9076 45.6636C18.4357 41.8473 19.4919 36.8648 20.4425 32.3064C20.6537 31.5643 20.7593 30.7162 20.8649 29.9742C21.4987 26.7939 21.8155 25.0977 22.3436 23.6136L24.1392 22.4475L25.6178 21.4934C25.6178 21.4934 26.674 24.3556 27.519 24.4616C27.9415 24.4616 28.1527 24.1436 28.1527 24.1436C28.364 23.8256 29.3145 22.3414 30.0539 21.1753C30.6876 20.1152 31.3213 19.1612 31.3213 19.1612C31.3213 19.1612 32.0606 23.9316 33.1168 23.7196C33.8562 23.6136 36.2854 19.6912 37.5529 17.677C37.9754 17.041 38.1866 16.5109 38.1866 16.5109C38.1866 16.5109 37.7641 21.0693 39.8765 22.6595C40.1934 22.9775 40.8271 22.4475 41.4608 21.1753C41.7777 20.4333 42.6226 18.8431 43.362 17.359C44.3125 15.4508 45.1575 13.6486 45.1575 13.6486L44.3125 21.9174C44.3125 21.9174 44.9463 21.9174 45.4744 21.5994C46.1081 21.2814 46.3193 20.9633 46.4249 20.3273C46.5306 19.6912 46.5306 19.4792 46.5306 19.4792L48.7486 12.1645C48.7486 12.1645 48.8542 11.9525 48.8542 12.5885C48.8542 13.3306 48.0092 21.5994 48.0092 21.5994C48.0092 21.5994 49.1711 21.4934 49.5935 20.9633C49.8048 20.7513 49.9104 20.4333 49.9104 20.0092C49.9104 19.5852 50.016 19.1612 50.016 19.1612L51.9172 11.7405C51.9172 11.7405 52.0228 11.3164 52.0228 11.8465C52.0228 12.2705 51.4947 20.9633 51.4947 20.9633C51.4947 20.9633 52.9734 20.7513 53.6071 19.4792C53.8183 19.0551 54.1352 18.2071 54.3464 17.571C54.5577 16.8289 54.7689 16.1929 54.7689 16.1929C54.7689 16.1929 54.6633 20.4333 56.2476 20.6453C56.8813 20.7513 59.0993 16.5109 59.0993 16.5109C59.0993 16.5109 58.5712 20.3273 59.4162 20.2213C59.5218 20.2213 60.578 18.6311 61.2117 17.677C61.5286 17.253 61.7398 16.9349 61.7398 16.9349C61.7398 16.9349 61.5286 17.889 61.0005 22.5535C60.2611 28.278 57.0925 38.4549 57.0925 38.4549C57.0925 38.561 57.3038 39.7271 58.8881 35.5927C60.578 31.2463 62.796 19.5852 62.796 19.5852C62.796 19.5852 63.9578 20.0092 65.3309 17.465C66.0702 16.1929 67.0208 13.4366 67.232 12.6946C67.232 12.6946 68.7107 12.1645 69.4501 11.7405C70.9287 11.3164 72.7243 8.77219 70.6119 7.39406ZM16.1121 47.2538C16.1121 47.2538 14.5278 46.9357 14.6334 39.197C14.8446 31.5643 19.7031 25.9458 19.7031 25.9458C18.4357 29.4441 16.1121 47.2538 16.1121 47.2538ZM27.7302 17.889C27.7302 17.359 27.8359 16.6169 28.1527 15.9809C28.6808 14.8147 28.9977 14.3907 29.1033 14.1787C29.1033 14.1787 29.5258 15.8748 29.4201 16.6169C29.4201 16.7229 29.4201 16.8289 29.3145 16.9349C29.1033 17.677 28.5752 18.7371 27.7302 19.5852C27.7302 19.5852 27.7302 18.7371 27.7302 17.889ZM34.5955 21.1753C34.3843 21.5994 34.2787 21.3874 34.0674 21.1753C33.9618 20.8573 33.6449 19.9032 33.5393 19.4792C33.0112 16.4049 33.7506 14.9208 34.0674 14.4967C34.173 14.3907 34.4899 13.9667 34.8068 14.3907C35.2292 15.0268 35.5461 16.9349 35.6517 18.1011C35.7573 19.0551 34.9124 20.7513 34.5955 21.1753ZM58.9937 15.9809C58.9937 15.9809 58.4656 16.8289 57.8319 17.677C57.6206 17.889 57.3038 18.2071 57.3038 18.2071C57.3038 18.2071 57.1982 17.995 57.1982 17.889C57.0925 17.571 57.0925 17.465 57.0925 17.465C56.5644 15.0268 56.9869 13.4366 57.3038 12.5885C57.6206 11.6345 58.2544 10.7864 58.36 10.7864C58.36 10.7864 59.0993 11.8465 59.3106 13.4366C59.5218 14.1787 58.9937 15.9809 58.9937 15.9809ZM64.6972 17.571C63.9578 18.6311 63.641 19.3732 63.0073 19.1612L63.4297 15.7688C64.0634 15.1328 64.2747 14.8147 64.9084 14.0727C65.6478 13.2246 66.1758 13.2246 66.1758 13.2246C66.1758 13.2246 65.3309 16.4049 64.6972 17.571ZM66.2815 11.5284C65.4365 11.9525 64.1691 13.7547 63.4297 14.6027C63.4297 14.6027 63.641 12.8006 63.7466 12.4825L65.4365 10.3623C65.4365 10.3623 65.9646 9.83229 66.2815 10.5744C66.3871 10.6804 66.2815 11.5284 66.2815 11.5284Z" fill="#252525"/>
</svg>
